<svg width="880" height="340" viewBox="0 0 880 340" fill="none" xmlns="http://www.w3.org/2000/svg">
  <rect width="880" height="340" rx="20" fill="#FFFDF8"/>
  <rect x="30" y="135" width="140" height="70" rx="12" fill="#E9F6F8" stroke="#1F7A8C"/>
  <text x="52" y="176" fill="#1B1E23" font-size="18" font-family="Space Grotesk">Tokens + BOS</text>

  <rect x="210" y="135" width="150" height="70" rx="12" fill="#FFF0DF" stroke="#F4A261"/>
  <text x="230" y="176" fill="#1B1E23" font-size="18" font-family="Space Grotesk">Embeddings</text>

  <rect x="400" y="120" width="190" height="100" rx="12" fill="#E8F4EF" stroke="#2A9D8F"/>
  <text x="432" y="164" fill="#1B1E23" font-size="17" font-family="Space Grotesk">Self-Attention</text>
  <text x="429" y="186" fill="#1B1E23" font-size="17" font-family="Space Grotesk">+ MLP Block</text>

  <rect x="630" y="135" width="120" height="70" rx="12" fill="#FFF4EB" stroke="#E76F51"/>
  <text x="656" y="176" fill="#1B1E23" font-size="18" font-family="Space Grotesk">Logits</text>

  <rect x="770" y="135" width="80" height="70" rx="12" fill="#ECF2FF" stroke="#5E81AC"/>
  <text x="786" y="176" fill="#1B1E23" font-size="18" font-family="Space Grotesk">Next</text>

  <path d="M170 170H210" stroke="#1B1E23" stroke-width="2"/>
  <path d="M360 170H400" stroke="#1B1E23" stroke-width="2"/>
  <path d="M590 170H630" stroke="#1B1E23" stroke-width="2"/>
  <path d="M750 170H770" stroke="#1B1E23" stroke-width="2"/>

  <polygon points="205,166 210,170 205,174" fill="#1B1E23"/>
  <polygon points="395,166 400,170 395,174" fill="#1B1E23"/>
  <polygon points="625,166 630,170 625,174" fill="#1B1E23"/>
  <polygon points="765,166 770,170 765,174" fill="#1B1E23"/>

  <text x="332" y="66" fill="#535D6C" font-size="15" font-family="Space Grotesk">Forward pass</text>
  <path d="M450 92C450 60 255 60 255 96" stroke="#8EA7B0" stroke-width="2" stroke-dasharray="6 5"/>
  <text x="245" y="113" fill="#535D6C" font-size="13" font-family="Space Grotesk">Residual stream</text>
</svg>
